<?xml version="1.0" encoding="UTF-8" standalone="no"?>
<svg
   xmlns:dc="http://purl.org/dc/elements/1.1/"
   xmlns:cc="http://creativecommons.org/ns#"
   xmlns:rdf="http://www.w3.org/1999/02/22-rdf-syntax-ns#"
   xmlns:svg="http://www.w3.org/2000/svg"
   xmlns="http://www.w3.org/2000/svg"
   xmlns:sodipodi="http://sodipodi.sourceforge.net/DTD/sodipodi-0.dtd"
   xmlns:inkscape="http://www.inkscape.org/namespaces/inkscape"
   width="556.3"
   height="87.5"
   viewBox="0.8 0 556.3 87.5"
   id="svg3035"
   version="1.1"
   inkscape:version="0.48.4 r9939"
   sodipodi:docname="logo-nobstr.svg">
  <metadata
     id="metadata3045">
    <rdf:RDF>
      <cc:Work
         rdf:about="">
        <dc:format>image/svg+xml</dc:format>
        <dc:type
           rdf:resource="http://purl.org/dc/dcmitype/StillImage" />
      </cc:Work>
    </rdf:RDF>
  </metadata>
  <defs
     id="defs3043" />
  <sodipodi:namedview
     pagecolor="#ffffff"
     bordercolor="#666666"
     borderopacity="1"
     objecttolerance="10"
     gridtolerance="10"
     guidetolerance="10"
     inkscape:pageopacity="0"
     inkscape:pageshadow="2"
     inkscape:window-width="1276"
     inkscape:window-height="761"
     id="namedview3041"
     showgrid="false"
     inkscape:zoom="1.0084487"
     inkscape:cx="322.40775"
     inkscape:cy="91.451211"
     inkscape:window-x="0"
     inkscape:window-y="18"
     inkscape:window-maximized="0"
     inkscape:current-layer="svg3035" />
  <path
     d="M 431.09375 34.40625 C 416.39375 34.40625 403.8125 47.89375 403.8125 65.09375 C 403.8125 79.09375 414.90625 87.5 426.90625 87.5 C 435.90625 87.5 440.2125 86.00625 445.3125 83.40625 L 448.1875 71.8125 C 441.9875 75.1125 434.5875 76.1875 429.6875 76.1875 C 420.3875 76.1875 415.90625 71.19375 415.90625 65.59375 L 415.90625 64.8125 L 449.6875 64.90625 C 450.8875 60.90625 451.5 57.20625 451.5 53.90625 C 451.5 41.30625 443.59375 34.40625 431.09375 34.40625 z M 430.59375 44.8125 C 436.59375 44.8125 439.6875 47.69375 439.6875 52.59375 C 439.6875 53.59375 439.6125 54.79375 439.3125 56.09375 L 417.3125 56.09375 C 419.7125 49.19375 424.49375 44.8125 430.59375 44.8125 z "
     transform="translate(0.8,-9.600173e-7)"
     id="path3057" />
  <path
     d="M 206.40625 34.40625 C 191.70625 34.40625 179.8125 47.89375 179.8125 65.09375 C 179.8125 79.09375 190.90625 87.5 202.90625 87.5 C 211.90625 87.5 216.2125 86.00625 221.3125 83.40625 L 224.1875 71.8125 C 217.9875 75.1125 210.5875 76.1875 205.6875 76.1875 C 196.3875 76.1875 191.90625 71.19375 191.90625 65.59375 L 191.90625 64.8125 L 225.6875 64.90625 C 226.8875 60.90625 227.5 57.20625 227.5 53.90625 C 227.5 41.30625 218.90625 34.40625 206.40625 34.40625 z M 206.6875 44.8125 C 212.5875 44.8125 215.8125 47.69375 215.8125 52.59375 C 215.8125 53.59375 215.70625 54.79375 215.40625 56.09375 L 193.40625 56.09375 C 195.80625 49.19375 200.5875 44.8125 206.6875 44.8125 z "
     transform="translate(0.8,-9.600173e-7)"
     id="path3069" />
  <path
     d="M 87 1.3125 L 84.40625 12 L 95.6875 12 L 79.1875 85.90625 L 91.3125 85.90625 L 93.6875 76.09375 C 95.1875 82.09375 101.19375 86.8125 107.59375 86.8125 C 122.49375 86.8125 133.8125 71.7125 133.8125 54.3125 C 133.8125 42.5125 128.2125 34.40625 116.3125 34.40625 C 110.5125 34.40625 104.2 38.9125 100.5 44.3125 L 110.09375 1.3125 L 87 1.3125 z M 111.59375 45.09375 C 117.79375 45.09375 121 50 121 56 C 121 66.3 114.19375 75.59375 105.59375 75.59375 C 98.89375 75.59375 96.5 71.9125 96.5 65.3125 C 96.5 54.4125 103.09375 45.09375 111.59375 45.09375 z "
     transform="translate(0.8,-9.600173e-7)"
     id="path3075" />
  <path
     d="M 46.59375 2.40625 C 19.593751 2.30625 4.7369516e-15 26.793751 0 50.09375 C 0 71.39375 13.906251 86.5 36.90625 86.5 C 63.906249 86.6 83.5 62.112499 83.5 38.8125 C 83.5 17.5125 69.593749 2.40625 46.59375 2.40625 z M 45.40625 15 C 60.30625 15 68.5 25.29375 68.5 38.59375 C 68.5 55.79375 55.49375 73.8125 38.09375 73.8125 C 23.19375 73.8125 15 63.4875 15 50.1875 C 15 32.9875 28.00625 15 45.40625 15 z "
     transform="translate(0.8,-9.600173e-7)"
     id="path3079" />
  <path
     d="m 326,26.8 h 21.6 V 24 H 329 V 0.5 h -3 v 26.3 z"
     id="path3099"
     style="fill:#e3032e;fill-opacity:1" />
  <path
     d="m 322.2,0.5 h -20.7 v 26.4 h 20.9 V 24.2 H 304.5 V 15 h 16 v -2.7 h -16 v -9 h 17.7 V 0.5 z"
     id="path3097"
     style="fill:#e3032e;fill-opacity:1" />
  <path
     d="M 285,23.2 275.6,0.5 h -3.3 L 283.6,27 h 2.6 L 297.5,0.4 h -3.2 L 285,23.2 z"
     id="path3095"
     style="fill:#e3032e;fill-opacity:1" />
  <path
     d="m 268.6,0.5 h -3 v 15.3 c 0,5.8 -3.1,8.7 -7.9,8.7 -5,0 -8.1,-3.2 -8.1,-8.9 V 0.5 h -3 v 15.3 c 0,7.5 4.4,11.5 11,11.5 6.6,0 11,-4 11,-11.7 V 0.5 z"
     id="path3093"
     style="fill:#e3032e;fill-opacity:1" />
  <path
     d="M 227.59375 0 C 219.59375 0 214.09375 6.3875002 214.09375 13.6875 C 214.09375 20.9875 219.5 27.3125 227.5 27.3125 C 235.5 27.3125 241 20.89375 241 13.59375 C 241 6.2937502 235.59375 2.3684758e-15 227.59375 0 z M 227.5 2.8125 C 233.5 2.8125 237.90625 7.5875001 237.90625 13.6875 C 237.90625 19.6875 233.59375 24.5 227.59375 24.5 C 221.59375 24.5 217.1875 19.59375 217.1875 13.59375 C 217.1875 7.5937501 221.5 2.8125 227.5 2.8125 z "
     transform="translate(0.8,-9.600173e-7)"
     id="path3089"
     style="fill:#e3032e;fill-opacity:1" />
  <path
     d="M 208.2,21.6 187.5,0.5 h -2.8 v 26.4 h 2.9 V 5.2 l 21.1,21.6 h 2.4 V 0.5 h -2.9 v 21.1 z"
     id="path3087"
     style="fill:#e3032e;fill-opacity:1" />
  <path
     d="M 167.8,0.5 H 147.1 V 26.9 H 168 V 24.2 H 150.1 V 15 h 16 v -2.7 h -16 v -9 h 17.7 V 0.5 z"
     id="path3085"
     style="fill:#e3032e;fill-opacity:1" />
  <path
     d="m 123.6,26.8 h 19.5 V 24 H 126.6 V 0.5 h -3 v 26.3 z"
     id="path3083"
     style="fill:#e3032e;fill-opacity:1" />
  <path
     d="m 180.2,47.2 c 0,-2.5 -1,-5 -2.9,-6.9 -3.4,-3.6 -9.3,-5.9 -16.3,-5.9 -13.6,0 -21,7.7 -21,15.9 0,8.5 7.7,12.1 14.1,14.8 5.5,2.4 10.7,4.2 10.7,8 0,3.3 -4.3,4.7 -8.9,4.7 -3,0 -5.9,-0.5 -8.2,-1.5 -0.7,-0.3 -1.2,-0.7 -1.7,-1 0.3,-0.5 0.7,-1.8 0.7,-2.8 0,-3.5 -2.8,-6.4 -6.2,-6.4 -3.6,0 -6.4,2.8 -6.4,7.2 0,2.7 1.2,5.1 3.3,7.2 3.7,3.8 10.3,6.4 18.4,6.4 13.5,0 21.2,-5.9 21.2,-16.1 0,-8 -6.7,-11.8 -13.1,-14.7 -5.6,-2.5 -11.6,-4.5 -11.6,-8.1 0,-3.3 4.9,-4.6 8.9,-4.6 1.9,0 3.9,0.3 5.5,0.9 0.7,0.2 1.1,0.5 1.6,0.7 -0.6,1.4 -0.7,1.8 -0.7,2.8 0,3.5 2.9,6.5 6.3,6.5 3.4,0 6.3,-2.8 6.3,-7.1"
     id="path3073" />
  <path
     d="M 283.5,86.2 C 300.2,67.1 312,55.7 312,43.8 c 0,-6.2 -3.7,-10.3 -8.8,-10.3 -4.4,0 -8.2,2.8 -8.7,7.1 -0.5,3.7 1.5,7 6.2,7.6 -4.2,7.9 -9.9,16.1 -18.1,25 L 278,34.5 h -13.1 c -6.7,-0.5 -11.6,5 -17.3,15.7 l 3.1,-14.8 H 234.4 L 231.7,46 h 6.1 L 228,86 h 12.6 l 5.6,-23 c 2.5,-10.3 8.2,-16.9 11.8,-18 0.5,5.8 4.3,6.4 6.6,6.2 1.9,0 3.1,-0.8 4.1,-1.3 l 5.6,36.2 h 9.2 v 0.1 z"
     id="path3067" />
  <path
     d="M 335.90625 34.40625 C 321.70625 34.40625 310.3125 49.7875 310.3125 67.1875 C 310.3125 78.9875 316.89375 86.8125 326.09375 86.8125 C 333.69375 86.8125 339.6875 81.60625 343.6875 75.40625 C 343.6875 82.30625 347.4125 86.8125 353.8125 86.8125 C 359.2125 86.8125 365.5125 83.80625 368.8125 71.90625 L 362.5 71.90625 C 360 78.90625 358.90625 78.5 357.40625 78.5 C 355.70625 78.5 355.09375 77.19375 355.09375 75.09375 C 355.19375 73.89375 355.49375 71.8875 356.09375 69.6875 L 364.5 35.3125 L 353.09375 35.3125 L 349.6875 45.6875 C 347.6875 39.8875 342.40625 34.40625 335.90625 34.40625 z M 337.90625 45.6875 C 344.40625 45.5875 346.5 49.99375 346.5 56.59375 C 346.5 67.49375 340.1 76.09375 332 76.09375 C 326.1 76.09375 323.09375 71.40625 323.09375 65.40625 C 323.09375 55.10625 329.70625 45.6875 337.90625 45.6875 z "
     transform="translate(0.8,-9.600173e-7)"
     id="path3063" />
  <path
     d="m 408.7,35.3 h -13.5 l 4.7,-17.5 -13.8,5.1 -3.4,12.5 H 370.3 L 367.9,46 h 12.3 l -5.3,21.9 c -0.6,2.5 -1,4.8 -1,6.8 0,8.5 5.5,12.1 12,12.1 4.8,0 11,-1.4 17.7,-8 l -4,-5.8 c -4.9,3.3 -6.8,4 -9.4,4 -1.9,0 -3.6,-1.2 -3.6,-4.6 0,-0.9 0.3,-2.8 0.8,-4.6 l 5.3,-21.9 h 13.5 l 2.5,-10.6 z"
     id="path3061" />
  <path
     d="M 498.6,69.7 507,35.3 h -12.6 l -7.2,29.6 c -1.8,7.4 -4.9,11.3 -10.9,11.3 -3.8,0 -6.1,-2.5 -6.1,-7.2 0,-1.4 0.3,-2.9 0.7,-4.5 L 478,35.3 h -19.9 l -2.7,10.6 h 7.4 l -4.2,17.4 c -0.8,3.5 -1.2,6.8 -1.2,9.5 0,8.8 5.8,14 12.2,14 6.3,0 12.3,-4.4 16.4,-11.2 0.1,6.8 3.9,11.2 10.2,11.2 5.4,0 11.7,-3 15,-14.9 h -5.7 c -2.5,7 -4.3,6.7 -5.9,6.7 -1.7,0 -2.1,-1.3 -2.1,-3.4 0.2,-1.3 0.6,-3.3 1.1,-5.5"
     id="path3055" />
  <path
     d="m 557.1,42.7 c 0,-5 -4,-8.3 -8.2,-8.3 -5.8,0 -11.7,5 -17.4,15.7 l 3.1,-14.8 h -21 l -2.7,10.6 h 10.7 l -9.8,40 h 12.6 l 5.6,-23 c 2.5,-10.3 8.2,-16.9 11.8,-18 0.6,2.9 3.5,5.8 7.4,5.8 4.5,0 7.9,-3.6 7.9,-8"
     id="path3039" />
</svg>
