<?xml version="1.0" encoding="iso-8859-1"?>
<!-- Generator: Adobe Illustrator 16.0.0, SVG Export Plug-In . SVG Version: 6.00 Build 0)  -->
<!DOCTYPE svg PUBLIC "-//W3C//DTD SVG 1.1//EN" "http://www.w3.org/Graphics/SVG/1.1/DTD/svg11.dtd">
<svg version="1.1"
	 id="svg3956" xmlns:rdf="http://www.w3.org/1999/02/22-rdf-syntax-ns#" xmlns:dc="http://purl.org/dc/elements/1.1/" xmlns:svg="http://www.w3.org/2000/svg" xmlns:cc="http://creativecommons.org/ns#"
	 xmlns="http://www.w3.org/2000/svg" xmlns:xlink="http://www.w3.org/1999/xlink" x="0px" y="0px" width="300px" height="116.348px"
	 viewBox="0 0 300 116.348" style="enable-background:new 0 0 300 116.348;" xml:space="preserve">
<g id="layer1" transform="translate(-175.71429,-742.75959)">
	<g id="g3909" transform="matrix(2.1040423,0,0,2.1040423,81.032405,141.77576)">
		<path id="path3321" style="fill:#357160;" d="M101.62,296.319c0,2.066,0.039,2.362,1.181,2.46l0.63,0.06
			c0.117,0.079,0.079,0.433-0.04,0.491c-1.121-0.039-1.791-0.058-2.579-0.058c-0.788,0-1.476,0.02-2.736,0.058
			c-0.118-0.058-0.158-0.394,0-0.491l0.709-0.06c1.123-0.098,1.221-0.394,1.221-2.46v-8.799c0-0.61,0-0.63-0.591-0.63h-1.083
			c-0.846,0-1.929,0.039-2.421,0.492c-0.473,0.433-0.669,0.865-0.885,1.358c-0.157,0.119-0.434,0.02-0.512-0.138
			c0.315-0.885,0.61-2.145,0.749-2.932c0.059-0.04,0.314-0.058,0.374,0c0.117,0.63,0.767,0.61,1.673,0.61h7.972
			c1.062,0,1.24-0.04,1.535-0.551c0.099-0.04,0.315-0.02,0.355,0.059c-0.217,0.807-0.355,2.401-0.296,2.992
			c-0.078,0.157-0.413,0.157-0.511,0.039c-0.059-0.491-0.196-1.22-0.492-1.436c-0.453-0.335-1.2-0.492-2.282-0.492h-1.398
			c-0.591,0-0.571,0.02-0.571,0.669V296.319L101.62,296.319z"/>
		<path id="path3325" style="fill:#357160;" d="M114.187,292.914c-0.945,0-0.985,0.04-0.985,0.63v2.775
			c0,2.067,0.099,2.343,1.201,2.461l0.571,0.059c0.117,0.079,0.079,0.433-0.04,0.492c-1.062-0.04-1.733-0.06-2.5-0.06
			c-0.846,0-1.515,0.04-2.282,0.06c-0.119-0.06-0.158-0.374-0.04-0.492l0.335-0.059c1.103-0.197,1.141-0.394,1.141-2.461v-7.086
			c0-2.066-0.137-2.401-1.161-2.48l-0.511-0.039c-0.119-0.078-0.079-0.433,0.039-0.492c0.965,0.02,1.634,0.059,2.48,0.059
			c0.767,0,1.438-0.02,2.284-0.059c0.119,0.059,0.158,0.414,0.04,0.492l-0.375,0.039c-1.141,0.119-1.181,0.414-1.181,2.48v2.264
			c0,0.61,0.04,0.63,0.985,0.63h5.63c0.944,0,0.984-0.02,0.984-0.63v-2.264c0-2.066-0.04-2.361-1.201-2.48l-0.374-0.039
			c-0.117-0.078-0.079-0.433,0.04-0.492c0.905,0.039,1.575,0.059,2.381,0.059c0.767,0,1.437-0.02,2.322-0.059
			c0.119,0.059,0.158,0.414,0.04,0.492l-0.414,0.039c-1.142,0.119-1.182,0.414-1.182,2.48v7.086c0,2.067,0.04,2.322,1.182,2.461
			l0.473,0.059c0.119,0.079,0.078,0.433-0.039,0.492c-0.945-0.04-1.615-0.06-2.382-0.06c-0.806,0-1.515,0.02-2.381,0.06
			c-0.119-0.06-0.157-0.374-0.04-0.492l0.374-0.059c1.201-0.197,1.201-0.394,1.201-2.461v-2.775c0-0.59-0.04-0.63-0.984-0.63
			H114.187L114.187,292.914z"/>
		<path id="path3329" style="fill:#357160;" d="M129,289.233c0-2.048-0.04-2.343-1.201-2.48l-0.316-0.04
			c-0.117-0.078-0.077-0.433,0.04-0.491c0.846,0.039,1.515,0.059,2.323,0.059h3.701c1.259,0,2.421,0,2.657-0.059
			c0.117,0.334,0.236,1.751,0.314,2.617c-0.078,0.119-0.392,0.158-0.492,0.04c-0.295-0.926-0.472-1.615-1.496-1.871
			c-0.414-0.097-1.044-0.117-1.909-0.117h-1.417c-0.591,0-0.591,0.039-0.591,0.787v3.936c0,0.551,0.06,0.551,0.65,0.551h1.141
			c0.827,0,1.437-0.039,1.674-0.117c0.236-0.079,0.374-0.198,0.473-0.689l0.158-0.808c0.097-0.117,0.432-0.117,0.511,0.02
			c0,0.472-0.078,1.24-0.078,1.987c0,0.709,0.078,1.457,0.078,1.89c-0.078,0.138-0.413,0.138-0.511,0.02l-0.178-0.767
			c-0.079-0.355-0.216-0.65-0.61-0.749c-0.276-0.079-0.748-0.099-1.516-0.099h-1.141c-0.59,0-0.65,0.02-0.65,0.532v2.775
			c0,1.044,0.06,1.713,0.375,2.047c0.235,0.236,0.649,0.453,2.382,0.453c1.515,0,2.086-0.078,2.52-0.295
			c0.354-0.198,0.885-0.886,1.398-1.91c0.137-0.097,0.414-0.039,0.492,0.138c-0.138,0.69-0.631,2.205-0.887,2.736
			c-1.771-0.039-3.522-0.059-5.275-0.059h-1.771c-0.846,0-1.515,0.02-2.677,0.059c-0.118-0.059-0.159-0.374-0.04-0.491l0.65-0.06
			c1.121-0.097,1.22-0.394,1.22-2.46V289.233L129,289.233z"/>
		<path id="path3333" style="fill:#357160;" d="M49.343,313.586c-0.945,0-0.984,0.039-0.984,0.63v2.775
			c0,2.067,0.097,2.342,1.2,2.461l0.571,0.058c0.117,0.079,0.079,0.433-0.04,0.493c-1.062-0.04-1.731-0.06-2.5-0.06
			c-0.846,0-1.515,0.04-2.282,0.06c-0.119-0.06-0.158-0.374-0.04-0.493l0.335-0.058c1.103-0.198,1.141-0.394,1.141-2.461v-7.086
			c0-2.066-0.137-2.401-1.161-2.48l-0.511-0.039c-0.119-0.079-0.079-0.434,0.039-0.492c0.965,0.02,1.634,0.058,2.48,0.058
			c0.769,0,1.438-0.02,2.284-0.058c0.119,0.058,0.158,0.414,0.04,0.492l-0.375,0.039c-1.141,0.119-1.18,0.414-1.18,2.48v2.264
			c0,0.61,0.039,0.63,0.984,0.63h5.63c0.944,0,0.984-0.02,0.984-0.63v-2.264c0-2.066-0.04-2.361-1.2-2.48l-0.375-0.039
			c-0.117-0.079-0.079-0.434,0.04-0.492c0.905,0.039,1.575,0.058,2.381,0.058c0.768,0,1.438-0.02,2.323-0.058
			c0.119,0.058,0.158,0.414,0.04,0.492l-0.414,0.039c-1.141,0.119-1.181,0.414-1.181,2.48v7.086c0,2.067,0.04,2.323,1.181,2.461
			l0.472,0.058c0.119,0.079,0.079,0.433-0.039,0.493c-0.945-0.04-1.615-0.06-2.383-0.06c-0.806,0-1.515,0.02-2.381,0.06
			c-0.119-0.06-0.158-0.374-0.04-0.493l0.375-0.058c1.2-0.198,1.2-0.394,1.2-2.461v-2.775c0-0.591-0.04-0.63-0.984-0.63H49.343z"/>
		<path id="path3337" style="fill:#357160;" d="M73.494,311.893c0-1.22-0.04-3.484-0.374-4.075
			c-0.138-0.236-0.493-0.374-0.984-0.413l-0.492-0.04c-0.119-0.138-0.079-0.394,0.039-0.472c0.749,0.04,1.476,0.06,2.244,0.06
			c0.828,0,1.359-0.02,2.067-0.06c0.158,0.098,0.138,0.355,0.039,0.472l-0.472,0.04c-0.491,0.039-0.865,0.216-0.984,0.473
			c-0.275,0.649-0.275,2.912-0.275,4.015v2.225c0,1.713-0.276,3.523-1.379,4.704c-0.846,0.925-2.302,1.437-3.759,1.437
			c-1.359,0-2.716-0.256-3.681-1.083c-1.044-0.866-1.535-2.304-1.535-4.646v-4.645c0-2.047-0.04-2.381-1.181-2.48l-0.492-0.04
			c-0.119-0.079-0.079-0.413,0.04-0.472c0.984,0.04,1.653,0.06,2.44,0.06c0.808,0,1.458-0.02,2.421-0.06
			c0.119,0.06,0.157,0.394,0.04,0.472l-0.472,0.04c-1.142,0.099-1.181,0.433-1.181,2.48v4.251c0,3.17,0.984,5.256,3.996,5.256
			c2.854,0,3.936-2.244,3.936-5.236V311.893L73.494,311.893z"/>
		<path id="path3341" style="fill:#357160;" d="M82.082,312.503c0,0.531,0.059,0.531,0.65,0.531h1.339
			c0.806,0,1.436-0.039,1.672-0.117c0.216-0.079,0.374-0.178,0.492-0.69l0.178-0.787c0.097-0.118,0.433-0.118,0.511,0
			c0,0.472-0.079,1.26-0.079,1.988c0,0.709,0.079,1.456,0.079,1.91c-0.079,0.117-0.374,0.117-0.511,0l-0.198-0.769
			c-0.099-0.354-0.256-0.63-0.63-0.747c-0.275-0.079-0.767-0.099-1.515-0.099h-1.339c-0.591,0-0.65,0.02-0.65,0.532v2.735
			c0,2.068,0.04,2.362,1.201,2.461l0.669,0.059c0.119,0.078,0.079,0.432-0.039,0.492c-1.163-0.04-1.831-0.06-2.619-0.06
			c-0.866,0-1.535,0.02-2.46,0.06c-0.119-0.06-0.158-0.374-0.04-0.492l0.492-0.059c1.141-0.139,1.181-0.394,1.181-2.461v-7.086
			c0-2.066-0.04-2.343-1.181-2.48l-0.315-0.039c-0.117-0.079-0.079-0.434,0.039-0.492c0.828,0.039,1.496,0.058,2.284,0.058h3.622
			c1.26,0,2.401,0,2.658-0.058c0,0.905,0.019,1.85,0.059,2.599c-0.059,0.117-0.335,0.176-0.472,0.058
			c-0.158-0.886-0.394-1.614-1.378-1.87c-0.434-0.119-1.083-0.119-1.91-0.119h-1.2c-0.591,0-0.591,0.04-0.591,0.788V312.503z"/>
		<path id="path3345" style="fill:#357160;" d="M93.909,312.503c0,0.531,0.059,0.531,0.65,0.531h1.339
			c0.806,0,1.436-0.039,1.673-0.117c0.216-0.079,0.374-0.178,0.493-0.69l0.177-0.787c0.097-0.118,0.433-0.118,0.511,0
			c0,0.472-0.079,1.26-0.079,1.988c0,0.709,0.079,1.456,0.079,1.91c-0.079,0.117-0.374,0.117-0.511,0l-0.198-0.769
			c-0.099-0.354-0.256-0.63-0.63-0.747c-0.275-0.079-0.767-0.099-1.515-0.099h-1.339c-0.591,0-0.65,0.02-0.65,0.532v2.735
			c0,2.068,0.04,2.362,1.201,2.461l0.669,0.059c0.119,0.078,0.079,0.432-0.039,0.492c-1.163-0.04-1.831-0.06-2.619-0.06
			c-0.866,0-1.535,0.02-2.46,0.06c-0.119-0.06-0.158-0.374-0.04-0.492l0.493-0.059c1.141-0.139,1.181-0.394,1.181-2.461v-7.086
			c0-2.066-0.04-2.343-1.181-2.48l-0.315-0.039c-0.118-0.079-0.079-0.434,0.039-0.492c0.828,0.039,1.496,0.058,2.284,0.058h3.623
			c1.26,0,2.401,0,2.657-0.058c0,0.905,0.019,1.85,0.059,2.599c-0.059,0.117-0.335,0.176-0.473,0.058
			c-0.158-0.886-0.394-1.614-1.378-1.87c-0.434-0.119-1.084-0.119-1.91-0.119h-1.201c-0.59,0-0.59,0.04-0.59,0.788L93.909,312.503
			L93.909,312.503z"/>
		<path id="path3349" style="fill:#357160;" d="M104.225,309.944c0-2.086-0.04-2.421-1.201-2.52l-0.492-0.039
			c-0.119-0.078-0.078-0.433,0.039-0.492c0.985,0.04,1.654,0.059,2.48,0.059c0.787,0,1.457-0.019,2.441-0.059
			c0.119,0.059,0.157,0.414,0.039,0.492l-0.491,0.039c-1.161,0.098-1.201,0.434-1.201,2.52v7.008c0,2.086,0.04,2.362,1.201,2.5
			l0.491,0.058c0.119,0.079,0.08,0.434-0.039,0.492c-0.984-0.04-1.654-0.058-2.441-0.058c-0.826,0-1.495,0.019-2.48,0.058
			c-0.117-0.058-0.157-0.374-0.039-0.492l0.492-0.058c1.161-0.139,1.201-0.414,1.201-2.5V309.944z"/>
		<path id="path3353" style="fill:#357160;" d="M123.086,316.598c0,0.591,0,2.932,0.059,3.445c-0.039,0.117-0.158,0.216-0.374,0.216
			c-0.236-0.335-0.808-1.024-2.52-2.972l-4.566-5.196c-0.531-0.61-1.87-2.225-2.284-2.658h-0.039
			c-0.079,0.236-0.099,0.689-0.099,1.28v4.291c0,0.925,0.02,3.484,0.354,4.074c0.119,0.218,0.512,0.335,1.005,0.374l0.61,0.06
			c0.117,0.158,0.099,0.394-0.04,0.492c-0.885-0.039-1.575-0.059-2.303-0.059c-0.828,0-1.359,0.02-2.048,0.059
			c-0.137-0.097-0.158-0.374-0.039-0.492l0.531-0.06c0.453-0.059,0.767-0.176,0.866-0.394c0.275-0.707,0.255-3.109,0.255-4.054
			v-5.69c0-0.55-0.02-0.964-0.432-1.417c-0.276-0.276-0.748-0.414-1.22-0.472l-0.335-0.04c-0.119-0.117-0.119-0.413,0.039-0.491
			c0.828,0.059,1.87,0.059,2.225,0.059c0.315,0,0.65-0.02,0.905-0.059c0.394,1.003,2.716,3.602,3.366,4.33l1.909,2.146
			c1.359,1.515,2.324,2.617,3.249,3.562h0.039c0.078-0.098,0.078-0.414,0.078-0.828v-4.212c0-0.925-0.02-3.484-0.394-4.074
			c-0.117-0.177-0.432-0.295-1.22-0.394l-0.335-0.04c-0.137-0.117-0.117-0.433,0.04-0.491c0.905,0.039,1.575,0.059,2.323,0.059
			c0.847,0,1.359-0.02,2.028-0.059c0.157,0.097,0.157,0.374,0.04,0.491l-0.276,0.04c-0.63,0.099-1.024,0.255-1.103,0.414
			c-0.335,0.707-0.295,3.149-0.295,4.054V316.598z"/>
		<path id="path3357" style="fill:#357160;" d="M139.054,317.936c0,0.787,0.119,1.26,0.472,1.398
			c0.058,0.058,0.058,0.177-0.02,0.236c-0.236,0-0.589,0.078-0.964,0.176c-1.042,0.277-2.46,0.513-3.524,0.513
			c-2.341,0-4.488-0.649-6.004-2.185c-1.18-1.181-1.81-2.736-1.81-4.469c0-1.673,0.551-3.365,1.771-4.665
			c1.319-1.378,3.268-2.303,6.24-2.303c1.123,0,2.165,0.216,2.5,0.295c0.373,0.079,0.983,0.216,1.22,0.177
			c0,0.65,0.119,1.674,0.296,2.854c-0.059,0.157-0.414,0.177-0.532,0.06c-0.55-2.126-2.028-2.796-4.035-2.796
			c-3.819,0-5.493,2.718-5.493,5.67c0,3.779,1.948,6.751,5.906,6.751c1.22,0,1.949-0.256,2.165-0.591
			c0.097-0.138,0.197-0.492,0.197-1.121v-0.788c0-1.654-0.06-1.771-1.28-1.91l-0.867-0.097c-0.157-0.079-0.137-0.434,0-0.492
			c0.572,0.04,1.654,0.058,2.815,0.058c0.768,0,1.437-0.019,2.086-0.058c0.139,0.078,0.158,0.374,0.02,0.492l-0.315,0.039
			c-0.828,0.099-0.846,0.65-0.846,1.654V317.936L139.054,317.936z"/>
		<path id="path3361" style="fill:#357160;" d="M149.463,316.991c0,2.066,0.04,2.362,1.182,2.46l0.63,0.06
			c0.117,0.079,0.078,0.433-0.04,0.492c-1.121-0.039-1.79-0.059-2.579-0.059c-0.786,0-1.475,0.02-2.736,0.059
			c-0.118-0.059-0.157-0.394,0-0.492l0.71-0.06c1.121-0.097,1.22-0.394,1.22-2.46v-8.799c0-0.61,0-0.63-0.59-0.63h-1.083
			c-0.847,0-1.929,0.039-2.422,0.492c-0.472,0.433-0.668,0.867-0.885,1.358c-0.158,0.119-0.433,0.02-0.512-0.137
			c0.317-0.885,0.611-2.145,0.749-2.932c0.059-0.04,0.315-0.059,0.374,0c0.118,0.63,0.768,0.61,1.674,0.61h7.971
			c1.063,0,1.24-0.04,1.535-0.551c0.098-0.04,0.315-0.02,0.355,0.059c-0.218,0.808-0.355,2.401-0.297,2.992
			c-0.077,0.158-0.412,0.158-0.511,0.039c-0.059-0.492-0.196-1.22-0.492-1.437c-0.453-0.335-1.2-0.492-2.283-0.492h-1.397
			c-0.59,0-0.572,0.02-0.572,0.669V316.991L149.463,316.991z"/>
		<path id="path3365" style="fill:#357160;" d="M157.066,313.586c0-3.936,2.952-6.949,7.008-6.949c4.547,0,6.829,3.287,6.829,6.753
			c0,3.975-3.03,6.869-6.829,6.869C159.703,320.258,157.066,317.129,157.066,313.586 M168.936,313.999
			c0-3.248-1.438-6.752-5.197-6.752c-2.047,0-4.704,1.398-4.704,5.708c0,2.914,1.417,6.693,5.295,6.693
			C166.69,319.648,168.936,317.877,168.936,313.999"/>
		<path id="path3369" style="fill:#357160;" d="M185.825,316.598c0,0.591,0,2.932,0.058,3.445c-0.039,0.117-0.158,0.216-0.374,0.216
			c-0.236-0.335-0.807-1.024-2.519-2.972l-4.566-5.196c-0.532-0.61-1.87-2.225-2.284-2.658h-0.039
			c-0.079,0.236-0.099,0.689-0.099,1.28v4.291c0,0.925,0.02,3.484,0.354,4.074c0.119,0.218,0.513,0.335,1.005,0.374l0.61,0.06
			c0.118,0.158,0.097,0.394-0.04,0.492c-0.885-0.039-1.575-0.059-2.302-0.059c-0.828,0-1.359,0.02-2.048,0.059
			c-0.137-0.097-0.158-0.374-0.039-0.492l0.531-0.06c0.453-0.059,0.767-0.176,0.867-0.394c0.275-0.707,0.255-3.109,0.255-4.054
			v-5.69c0-0.55-0.019-0.964-0.433-1.417c-0.276-0.276-0.748-0.414-1.22-0.472l-0.335-0.04c-0.118-0.117-0.118-0.413,0.039-0.491
			c0.828,0.059,1.87,0.059,2.225,0.059c0.315,0,0.65-0.02,0.905-0.059c0.394,1.003,2.716,3.602,3.366,4.33l1.91,2.146
			c1.357,1.515,2.323,2.617,3.247,3.562h0.039c0.079-0.098,0.079-0.414,0.079-0.828v-4.212c0-0.925-0.019-3.484-0.394-4.074
			c-0.118-0.177-0.433-0.295-1.22-0.394l-0.335-0.04c-0.137-0.117-0.117-0.433,0.04-0.491c0.905,0.039,1.574,0.059,2.323,0.059
			c0.846,0,1.357-0.02,2.027-0.059c0.157,0.097,0.157,0.374,0.04,0.491l-0.277,0.04c-0.63,0.099-1.024,0.255-1.102,0.414
			c-0.335,0.707-0.295,3.149-0.295,4.054V316.598z"/>
		<path id="path3373" style="fill:#357160;" d="M93.778,337.663c0,2.066,0.04,2.323,1.299,2.46l0.533,0.06
			c0.117,0.098,0.079,0.432-0.04,0.491c-1.123-0.039-1.771-0.059-2.559-0.059c-0.826,0-1.535,0.02-2.401,0.059
			c-0.119-0.059-0.157-0.374-0.04-0.491l0.414-0.06c1.141-0.156,1.181-0.394,1.181-2.46v-7.264c0-1.672-0.04-2.007-0.925-2.106
			l-0.709-0.078c-0.139-0.119-0.119-0.414,0.039-0.492c1.044-0.139,2.264-0.157,3.898-0.157c1.634,0,2.855,0.216,3.78,0.786
			c0.905,0.571,1.575,1.595,1.575,2.954c0,1.81-1.122,2.716-1.969,3.13c-0.866,0.413-1.91,0.59-2.716,0.59
			c-0.139-0.06-0.139-0.355-0.02-0.394c2.126-0.394,2.894-1.595,2.894-3.307c0-1.909-1.123-3.149-3.17-3.149
			c-1.042,0-1.062,0.079-1.062,0.709V337.663z"/>
		<path id="path3377" style="fill:#357160;" d="M102.644,334.257c0-3.936,2.953-6.949,7.008-6.949c4.548,0,6.83,3.287,6.83,6.752
			c0,3.975-3.031,6.869-6.83,6.869C105.282,340.93,102.644,337.801,102.644,334.257 M114.514,334.671
			c0-3.249-1.438-6.753-5.198-6.753c-2.046,0-4.704,1.399-4.704,5.709c0,2.914,1.417,6.692,5.295,6.692
			C112.269,340.32,114.514,338.549,114.514,334.671"/>
		<path id="path3381" style="fill:#357160;" d="M122.975,340.93c-1.654,0-2.697-0.512-3.072-0.729
			c-0.236-0.433-0.491-1.83-0.531-2.755c0.098-0.137,0.394-0.177,0.472-0.058c0.295,1.003,1.102,2.932,3.386,2.932
			c1.653,0,2.46-1.082,2.46-2.264c0-0.867-0.177-1.831-1.614-2.757l-1.87-1.22c-0.985-0.65-2.127-1.772-2.127-3.385
			c0-1.871,1.456-3.386,4.017-3.386c0.61,0,1.319,0.117,1.83,0.256c0.256,0.078,0.532,0.117,0.689,0.117
			c0.178,0.472,0.356,1.575,0.356,2.401c-0.079,0.119-0.394,0.178-0.493,0.06c-0.256-0.945-0.787-2.225-2.677-2.225
			c-1.929,0-2.343,1.28-2.343,2.185c0,1.141,0.945,1.969,1.674,2.421l1.575,0.984c1.24,0.767,2.46,1.91,2.46,3.78
			C127.167,339.454,125.533,340.93,122.975,340.93"/>
		<path id="path3385" style="fill:#357160;" d="M136.96,337.663c0,2.066,0.04,2.362,1.181,2.46l0.63,0.06
			c0.117,0.078,0.079,0.432-0.039,0.491c-1.122-0.039-1.792-0.059-2.58-0.059c-0.786,0-1.476,0.02-2.736,0.059
			c-0.118-0.059-0.157-0.393,0-0.491l0.708-0.06c1.123-0.097,1.221-0.394,1.221-2.46v-8.799c0-0.61,0-0.63-0.591-0.63h-1.082
			c-0.846,0-1.929,0.039-2.421,0.492c-0.472,0.432-0.669,0.866-0.886,1.357c-0.157,0.119-0.433,0.02-0.512-0.137
			c0.316-0.885,0.61-2.145,0.749-2.932c0.059-0.04,0.315-0.059,0.374,0c0.117,0.63,0.767,0.61,1.672,0.61h7.973
			c1.064,0,1.24-0.04,1.536-0.551c0.097-0.04,0.315-0.02,0.354,0.058c-0.216,0.808-0.354,2.401-0.295,2.993
			c-0.079,0.157-0.414,0.157-0.512,0.039c-0.058-0.491-0.196-1.22-0.491-1.436c-0.454-0.335-1.201-0.492-2.284-0.492h-1.398
			c-0.591,0-0.571,0.02-0.571,0.67V337.663L136.96,337.663z"/>
	</g>
</g>
</svg>
